<svg width="26" height="18" viewBox="0 0 26 18" fill="none" xmlns="http://www.w3.org/2000/svg">
<path d="M23.8158 1.53363H2.12281C1.5027 1.53363 1 2.01548 1 2.60986V15.4238C1 16.0181 1.5027 16.5 2.12281 16.5H23.8158C24.4359 16.5 24.9386 16.0181 24.9386 15.4238V2.60986C24.9386 2.01548 24.4359 1.53363 23.8158 1.53363Z" fill="#B8F31A"/>
<path d="M21.7719 6.98206H15.1228C14.6667 6.98206 14.2895 6.62892 14.2895 6.18329C14.2895 5.73766 14.6579 5.38452 15.1228 5.38452H21.7719C22.2281 5.38452 22.6053 5.73766 22.6053 6.18329C22.6053 6.62892 22.2368 6.98206 21.7719 6.98206ZM21.7719 10.1687H15.1228C14.6667 10.1687 14.2895 9.81558 14.2895 9.36995C14.2895 8.92432 14.6579 8.57118 15.1228 8.57118H21.7719C22.2281 8.57118 22.6053 8.92432 22.6053 9.36995C22.6053 9.81558 22.2368 10.1687 21.7719 10.1687ZM20.1053 13.3554H15.114C14.6579 13.3554 14.2807 13.0022 14.2807 12.5566C14.2807 12.111 14.6491 11.7578 15.114 11.7578H20.1053C20.5614 11.7578 20.9386 12.111 20.9386 12.5566C20.9386 13.0022 20.5702 13.3554 20.1053 13.3554Z" fill="#065B94"/>
<path d="M25 4.85482V2.73598C25 2.05493 24.4211 1.5 23.7105 1.5H2.35088C1.64036 1.5 1.06141 2.05493 1.06141 2.73598V15.2388C1.06141 15.9198 1.64036 16.4748 2.35088 16.4748H23.7018C24.4123 16.4748 24.9912 15.9198 24.9912 15.2388V7.78083" stroke="#065B94" stroke-width="1.5" stroke-miterlimit="10" stroke-linecap="round"/>
<path d="M7.6579 10.3285C6.22807 10.3285 4.92983 9.49608 4.38597 8.22647C3.83334 6.95685 4.14035 5.49384 5.1579 4.52691C6.17544 3.55998 7.70176 3.2657 9.01755 3.787C10.3421 4.31671 11.2105 5.5527 11.2105 6.92322C11.2105 8.79822 9.62281 10.3201 7.66667 10.3201L7.6579 10.3285Z" fill="#065B94"/>
<path d="M7.65792 4.88846C6.79827 4.88846 6.02635 5.38453 5.69301 6.14967C5.35968 6.9064 5.54389 7.78924 6.15792 8.3694C6.76319 8.94956 7.68424 9.12613 8.47371 8.81503C9.27196 8.49552 9.7895 7.75561 9.7895 6.93162C9.7895 5.80494 8.83336 4.89687 7.6667 4.89687L7.65792 4.88846Z" fill="#B8F31A"/>
<path d="M11.2018 14.4064H8.36844C7.97371 14.4064 7.65792 14.1037 7.65792 13.7253C7.65792 13.347 7.97371 13.0443 8.36844 13.0443H10.6228L11.1141 10.6984L9.04388 9.7147C8.87721 9.63902 8.74564 9.49608 8.68423 9.31951C8.62283 9.15135 8.64037 8.95797 8.71932 8.79822C8.80704 8.63846 8.95616 8.51234 9.1316 8.45348C9.31581 8.39463 9.50879 8.41144 9.67546 8.49552L12.2281 9.7231C12.5088 9.85763 12.6667 10.1603 12.6053 10.463L11.8948 13.8599C11.8246 14.1794 11.5351 14.4064 11.2018 14.4064ZM5.52634 14.4064H4.10528C3.77195 14.4064 3.47371 14.1794 3.4123 13.8599L2.70178 10.463C2.64037 10.1603 2.7895 9.85763 3.07897 9.7231L5.6316 8.49552C5.98248 8.32736 6.4123 8.46189 6.58774 8.79822C6.76318 9.13454 6.62283 9.54653 6.27195 9.7147L4.20178 10.6984L4.693 13.0443H5.53511C5.92985 13.0443 6.24564 13.347 6.24564 13.7253C6.24564 14.1037 5.92985 14.4064 5.53511 14.4064H5.52634Z" fill="#065B94"/>
</svg>
