<svg width="20" height="24" viewBox="0 0 20 24" fill="none" xmlns="http://www.w3.org/2000/svg">
<path d="M1.0294 20.2369C1.0294 20.2369 2.62492 16.2235 2.62492 13.9416C2.62492 11.6597 1.05025 3.8432 10.0081 3.50291C18.966 3.16263 17.3496 11.6297 17.4226 13.1309C17.4956 14.6322 17.5895 16.5938 19.0911 20.2469L13.8874 20.4771C13.8874 20.4771 12.563 23.6797 10.2167 23.6097C7.87033 23.5396 6.71279 21.588 6.68151 20.2469H1.03983L1.0294 20.2369Z" fill="white"/>
<path d="M2.12436 19.196H17.871C17.0785 17.2944 16.6718 15.2727 16.6613 13.221V10.3987C16.6613 6.86572 13.6789 4.00334 9.99768 4.00334C6.31651 4.00334 3.33403 6.86572 3.33403 10.3987V13.221C3.33403 15.2627 2.9169 17.2944 2.12436 19.196ZM19.1641 20.7973H0.831251C0.53926 20.7973 0.278554 20.6472 0.12213 20.417C-0.0238657 20.1868 -0.0447209 19.8866 0.0908463 19.6464C1.12324 17.6547 1.65508 15.4729 1.66551 13.251V10.4087C1.66551 5.995 5.39883 2.41201 9.99768 2.41201C14.5965 2.41201 18.3299 5.995 18.3299 10.4087V13.231C18.3299 15.4529 18.8721 17.6347 19.9045 19.6264C20.0401 19.8766 20.0297 20.1768 19.8837 20.417C19.7377 20.6572 19.4561 20.8073 19.1641 20.8073V20.7973Z" fill="#A2AAB1"/>
<path d="M9.99768 4.00334C9.53884 4.00334 9.16342 3.64303 9.16342 3.20267V0.800666C9.16342 0.360299 9.53884 0 9.99768 0C10.4565 0 10.8319 0.360299 10.8319 0.800666V3.20267C10.8319 3.41284 10.7485 3.62302 10.5921 3.77314C10.4357 3.92327 10.2271 4.00334 9.99768 4.00334ZM9.99768 23.99C7.70347 23.99 5.83681 22.1985 5.83681 19.9967C5.83681 19.5563 6.21222 19.196 6.67107 19.196C7.12991 19.196 7.50533 19.5563 7.50533 19.9967C7.50533 20.6372 7.76603 21.2377 8.2353 21.6881C9.22599 22.5888 10.7798 22.5888 11.7705 21.6881C12.0938 21.3778 12.6256 21.3778 12.9593 21.6881C13.2826 21.9983 13.2826 22.5088 12.9593 22.829C12.1772 23.5796 11.1135 24 10.0081 24L9.99768 23.99Z" fill="#A2AAB1"/>
</svg>
