<svg width="18" height="26" viewBox="0 0 18 26" fill="none" xmlns="http://www.w3.org/2000/svg">
<path d="M9.00543 25C6.47454 22.5191 1 16.3169 1 9.23189C1 6.29283 2.52072 3.56609 4.99729 2.10215C7.47387 0.638209 10.5261 0.627034 13.0027 2.10215C15.4793 3.57727 17 6.29283 17 9.23189C17 16.3169 11.5255 22.5191 8.99457 25H9.00543Z" fill="white"/>
<path d="M9.00543 25C6.47454 22.5191 1 16.3169 1 9.23189C1 6.29283 2.52072 3.56609 4.99729 2.10215C7.47387 0.638209 10.5261 0.627034 13.0027 2.10215C15.4793 3.57727 17 6.29283 17 9.23189C17 16.3169 11.5255 22.5191 8.99457 25H9.00543Z" stroke="#A2AAB1" stroke-width="2" stroke-miterlimit="10"/>
<path d="M9.00543 6.41577C7.71283 6.41577 6.53973 7.22038 6.05093 8.44965C5.55127 9.67891 5.83368 11.0982 6.74611 12.0369C7.65853 12.9756 9.03802 13.255 10.2329 12.7521C11.4277 12.238 12.2098 11.0423 12.2098 9.71244C12.2098 7.89089 10.776 6.42695 9.00543 6.41577Z" fill="#A2AAB1"/>
</svg>
