<svg width="24" height="24" viewBox="0 0 24 24" fill="none" xmlns="http://www.w3.org/2000/svg">
<path d="M21.15 2.57999H3C2.1771 2.57999 1.51 3.24708 1.51 4.06999V22.51C1.51 23.3329 2.1771 24 3 24H21.15C21.9729 24 22.64 23.3329 22.64 22.51V4.06999C22.64 3.24708 21.9729 2.57999 21.15 2.57999Z" fill="#B8F31A"/>
<path d="M23.25 6.75V3.75C23.25 2.51 22.24 1.5 21 1.5H18V0.75C18 0.34 17.66 0 17.25 0C16.84 0 16.5 0.34 16.5 0.75V1.5H12.75V0.75C12.75 0.34 12.41 0 12 0C11.59 0 11.25 0.34 11.25 0.75V1.5H7.5V0.75C7.5 0.34 7.16 0 6.75 0C6.34 0 6 0.34 6 0.75V3.75C6 4.16 6.34 4.5 6.75 4.5C7.16 4.5 7.5 4.16 7.5 3.75V3H11.25V3.75C11.25 4.16 11.59 4.5 12 4.5C12.41 4.5 12.75 4.16 12.75 3.75V3H16.5V3.75C16.5 4.16 16.84 4.5 17.25 4.5C17.66 4.5 18 4.16 18 3.75V3H21C21.2 3 21.39 3.08 21.53 3.22C21.67 3.36 21.75 3.55 21.75 3.75V6H2.25V3.75C2.25 3.34 2.59 3 3 3H3.75C4.16 3 4.5 2.66 4.5 2.25C4.5 1.84 4.16 1.5 3.75 1.5H3C1.76 1.5 0.75 2.51 0.75 3.75V21.75C0.75 22.99 1.76 24 3 24H21C22.24 24 23.25 22.99 23.25 21.75V9.75C23.25 9.34 22.91 9 22.5 9C22.09 9 21.75 9.34 21.75 9.75V21.75C21.75 21.95 21.67 22.14 21.53 22.28C21.39 22.42 21.2 22.5 21 22.5H3C2.59 22.5 2.25 22.16 2.25 21.75V7.5H22.5C22.7 7.5 22.89 7.42 23.03 7.28C23.17 7.14 23.25 6.95 23.25 6.75Z" fill="#065B94"/>
<path d="M18.75 18.75H17.25V17.25H18.75V18.75ZM18.75 15.75H17.25C16.42 15.75 15.75 16.42 15.75 17.25V18.75C15.75 19.15 15.91 19.53 16.19 19.81C16.47 20.09 16.85 20.25 17.25 20.25H18.75C19.15 20.25 19.53 20.09 19.81 19.81C20.09 19.53 20.25 19.15 20.25 18.75V17.25C20.25 16.85 20.09 16.47 19.81 16.19C19.53 15.91 19.15 15.75 18.75 15.75ZM6.75 18.75H5.25V17.25H6.75V18.75ZM6.75 15.75H5.25C4.42 15.75 3.75 16.42 3.75 17.25V18.75C3.75 19.15 3.91 19.53 4.19 19.81C4.47 20.09 4.85 20.25 5.25 20.25H6.75C7.15 20.25 7.53 20.09 7.81 19.81C8.09 19.53 8.25 19.15 8.25 18.75V17.25C8.25 16.85 8.09 16.47 7.81 16.19C7.53 15.91 7.15 15.75 6.75 15.75ZM18.75 12.75H17.25V11.25H18.75V12.75ZM20.25 11.25C20.25 10.85 20.09 10.47 19.81 10.19C19.53 9.91 19.15 9.75 18.75 9.75H17.25C16.42 9.75 15.75 10.42 15.75 11.25V12.75C15.75 13.15 15.91 13.53 16.19 13.81C16.47 14.09 16.85 14.25 17.25 14.25H18.75C19.15 14.25 19.53 14.09 19.81 13.81C20.09 13.53 20.25 13.15 20.25 12.75V11.25ZM12.75 12.75H11.25V11.25H12.75V12.75ZM11.25 9.75C10.42 9.75 9.75 10.42 9.75 11.25V12.75C9.75 13.15 9.91 13.53 10.19 13.81C10.47 14.09 10.85 14.25 11.25 14.25H12.75C13.15 14.25 13.53 14.09 13.81 13.81C14.09 13.53 14.25 13.15 14.25 12.75V11.25C14.25 10.85 14.09 10.47 13.81 10.19C13.53 9.91 13.15 9.75 12.75 9.75H11.25ZM6.75 12.75H5.25V11.25H6.75V12.75ZM8.25 11.25C8.25 10.85 8.09 10.47 7.81 10.19C7.53 9.91 7.15 9.75 6.75 9.75H5.25C4.42 9.75 3.75 10.42 3.75 11.25V12.75C3.75 13.15 3.91 13.53 4.19 13.81C4.47 14.09 4.85 14.25 5.25 14.25H6.75C7.15 14.25 7.53 14.09 7.81 13.81C8.09 13.53 8.25 13.15 8.25 12.75V11.25Z" fill="#065B94"/>
<path d="M13.06 18L14.03 17.03C14.31 16.73 14.31 16.27 14.02 15.98C13.73 15.69 13.27 15.68 12.97 15.97L12 16.94L11.03 15.97C10.73 15.68 10.27 15.69 9.98 15.97C9.69 16.26 9.68 16.72 9.97 17.02L10.94 17.99L9.97 18.96C9.83 19.1 9.74 19.29 9.74 19.49C9.74 19.69 9.81 19.88 9.96 20.02C10.1 20.17 10.3 20.24 10.49 20.24C10.69 20.24 10.88 20.16 11.02 20.01L11.99 19.04L12.96 20.01C13.26 20.3 13.72 20.29 14.01 20.01C14.3 19.72 14.31 19.26 14.02 18.96L13.05 17.99L13.06 18Z" fill="#065B94"/>
</svg>
