<svg width="24" height="24" viewBox="0 0 24 24" fill="none" xmlns="http://www.w3.org/2000/svg">
<path d="M1.08657 16.5632C1.08657 16.5632 3.72657 13.5532 4.31657 13.3332C4.31657 13.3332 5.95658 12.2332 8.00658 12.3832C10.0566 12.5332 11.4066 13.7532 11.8666 13.8532C12.3266 13.9532 15.7766 13.6832 15.7066 15.9032V16.8032L19.4766 12.6732C19.4766 12.6732 21.3866 11.0332 23.1166 12.3532L18.0066 19.4232C18.0066 19.4232 17.2766 21.3832 15.0466 21.6232L8.41657 21.4032C8.41657 21.4032 7.41657 21.4732 6.14657 22.8932C4.87657 24.3132 0.00657067 18.1932 0.0565707 18.0532C0.106571 17.9132 -0.213431 17.7632 1.08657 16.5632Z" fill="#B8F31A"/>
<path d="M15.7666 17.6732H9.76657C9.35657 17.6732 9.01657 17.3332 9.01657 16.9232C9.01657 16.5132 9.35657 16.1732 9.76657 16.1732H15.0166C15.0166 15.7732 14.8566 15.3932 14.5766 15.1132C14.2966 14.8332 13.9166 14.6732 13.5166 14.6732H12.8266C12.1566 14.6732 11.4966 14.4732 10.9366 14.1032C8.74657 12.6332 5.82657 12.9232 3.96657 14.7932L1.30657 17.4532C1.00657 17.7432 0.546574 17.7332 0.256574 17.4532C-0.0334262 17.1632 -0.0434284 16.7032 0.246572 16.4032L2.90657 13.7432C5.27657 11.3732 8.98657 11.0032 11.7666 12.8632C12.0766 13.0732 12.4466 13.1832 12.8266 13.1832H13.5166C14.3166 13.1832 15.0766 13.5032 15.6366 14.0632C16.1966 14.6232 16.5166 15.3832 16.5166 16.1832V16.9332C16.5166 17.1332 16.4366 17.3232 16.2966 17.4632C16.1566 17.6032 15.9666 17.6832 15.7666 17.6832V17.6732Z" fill="#065B94"/>
<path d="M6.76657 22.9232C6.46657 22.9232 6.18657 22.7432 6.07657 22.4532C5.95657 22.1732 6.02657 21.8532 6.23657 21.6332C6.85657 21.0132 7.70657 20.6632 8.57657 20.6632H15.0166C15.7266 20.6632 16.3966 20.3232 16.8166 19.7632L22.1166 12.6932C21.2866 12.4732 20.4066 12.7432 19.8466 13.3832L16.3266 17.4032C16.1966 17.5532 16.0066 17.6532 15.8066 17.6632C15.6066 17.6832 15.4066 17.6132 15.2566 17.4832C15.1066 17.3532 15.0166 17.1632 15.0066 16.9732C14.9866 16.7732 15.0666 16.5732 15.1866 16.4332L18.6966 12.4132C19.9366 11.0032 22.0366 10.7232 23.5966 11.7632C23.7766 11.8832 23.9066 12.0632 23.9466 12.2832C23.9966 12.4832 23.9466 12.7032 23.8366 12.8832L17.9866 20.6832C17.2766 21.6232 16.1666 22.1832 14.9866 22.1832H8.54657C8.06657 22.1832 7.60657 22.3732 7.26657 22.7132C7.12657 22.8532 6.93657 22.9332 6.73657 22.9332L6.76657 22.9232Z" fill="#065B94"/>
<path d="M18.7866 5.19822C18.7866 2.82063 16.8592 0.893219 14.4816 0.893219C12.104 0.893219 10.1766 2.82063 10.1766 5.19822C10.1766 7.57581 12.104 9.50322 14.4816 9.50322C16.8592 9.50322 18.7866 7.57581 18.7866 5.19822Z" fill="#B8F31A"/>
<path d="M14.4866 9.34323C16.773 9.34323 18.6266 7.48969 18.6266 5.20323C18.6266 2.91677 16.773 1.06323 14.4866 1.06323C12.2001 1.06323 10.3466 2.91677 10.3466 5.20323C10.3466 7.48969 12.2001 9.34323 14.4866 9.34323Z" stroke="#065B94" stroke-width="2" stroke-miterlimit="10"/>
</svg>
