<svg width="14" height="14" viewBox="0 0 14 14" fill="none" xmlns="http://www.w3.org/2000/svg">
<path d="M11.375 1.96875H9.84375V1.3125C9.84375 1.25448 9.8207 1.19884 9.77968 1.15782C9.73866 1.1168 9.68302 1.09375 9.625 1.09375C9.56698 1.09375 9.51134 1.1168 9.47032 1.15782C9.4293 1.19884 9.40625 1.25448 9.40625 1.3125V1.96875H4.59375V1.3125C4.59375 1.25448 4.5707 1.19884 4.52968 1.15782C4.48866 1.1168 4.43302 1.09375 4.375 1.09375C4.31698 1.09375 4.26134 1.1168 4.22032 1.15782C4.1793 1.19884 4.15625 1.25448 4.15625 1.3125V1.96875H2.625C2.45095 1.96875 2.28403 2.03789 2.16096 2.16096C2.03789 2.28403 1.96875 2.45095 1.96875 2.625V11.375C1.96875 11.549 2.03789 11.716 2.16096 11.839C2.28403 11.9621 2.45095 12.0312 2.625 12.0312H11.375C11.549 12.0312 11.716 11.9621 11.839 11.839C11.9621 11.716 12.0312 11.549 12.0312 11.375V2.625C12.0312 2.45095 11.9621 2.28403 11.839 2.16096C11.716 2.03789 11.549 1.96875 11.375 1.96875ZM2.625 2.40625H4.15625V3.0625C4.15625 3.12052 4.1793 3.17616 4.22032 3.21718C4.26134 3.2582 4.31698 3.28125 4.375 3.28125C4.43302 3.28125 4.48866 3.2582 4.52968 3.21718C4.5707 3.17616 4.59375 3.12052 4.59375 3.0625V2.40625H9.40625V3.0625C9.40625 3.12052 9.4293 3.17616 9.47032 3.21718C9.51134 3.2582 9.56698 3.28125 9.625 3.28125C9.68302 3.28125 9.73866 3.2582 9.77968 3.21718C9.8207 3.17616 9.84375 3.12052 9.84375 3.0625V2.40625H11.375C11.433 2.40625 11.4887 2.4293 11.5297 2.47032C11.5707 2.51134 11.5938 2.56698 11.5938 2.625V4.59375H2.40625V2.625C2.40625 2.56698 2.4293 2.51134 2.47032 2.47032C2.51134 2.4293 2.56698 2.40625 2.625 2.40625ZM11.375 11.5938H2.625C2.56698 11.5938 2.51134 11.5707 2.47032 11.5297C2.4293 11.4887 2.40625 11.433 2.40625 11.375V5.03125H11.5938V11.375C11.5938 11.433 11.5707 11.4887 11.5297 11.5297C11.4887 11.5707 11.433 11.5938 11.375 11.5938ZM5.90625 6.5625V10.0625C5.90625 10.1205 5.8832 10.1762 5.84218 10.2172C5.80116 10.2582 5.74552 10.2812 5.6875 10.2812C5.62948 10.2812 5.57384 10.2582 5.53282 10.2172C5.4918 10.1762 5.46875 10.1205 5.46875 10.0625V6.91633L4.91039 7.19578C4.85847 7.22174 4.79835 7.22602 4.74328 7.20766C4.68821 7.1893 4.64268 7.14981 4.61672 7.09789C4.59076 7.04597 4.58648 6.98586 4.60484 6.93078C4.6232 6.87571 4.66268 6.83018 4.71461 6.80422L5.58961 6.36672C5.62297 6.35002 5.66005 6.34214 5.69732 6.34381C5.73459 6.34549 5.77081 6.35667 5.80254 6.37629C5.83427 6.39591 5.86046 6.42331 5.87861 6.45591C5.89676 6.4885 5.90628 6.52519 5.90625 6.5625ZM9.1875 8.09375L7.875 9.84375H9.1875C9.24552 9.84375 9.30116 9.8668 9.34218 9.90782C9.3832 9.94884 9.40625 10.0045 9.40625 10.0625C9.40625 10.1205 9.3832 10.1762 9.34218 10.2172C9.30116 10.2582 9.24552 10.2812 9.1875 10.2812H7.4375C7.39688 10.2812 7.35705 10.2699 7.3225 10.2486C7.28794 10.2272 7.26001 10.1967 7.24184 10.1603C7.22368 10.124 7.21599 10.0833 7.21963 10.0429C7.22328 10.0024 7.23813 9.96375 7.2625 9.93125L8.83641 7.83289C8.92276 7.71921 8.96927 7.58026 8.96875 7.4375C8.96891 7.2929 8.92131 7.1523 8.83334 7.03754C8.74538 6.92278 8.62197 6.84028 8.4823 6.80287C8.34262 6.76545 8.1945 6.77522 8.06095 6.83065C7.9274 6.88607 7.81589 6.98406 7.74375 7.10938C7.71348 7.15699 7.66599 7.19107 7.61119 7.20449C7.55639 7.21791 7.49852 7.20964 7.44967 7.18141C7.40082 7.15317 7.36478 7.10716 7.34906 7.05297C7.33334 6.99878 7.33916 6.94062 7.36531 6.89062C7.4857 6.68212 7.67153 6.51917 7.89397 6.42704C8.11641 6.33491 8.36303 6.31875 8.59559 6.38107C8.82815 6.44338 9.03365 6.58069 9.18022 6.7717C9.32679 6.96271 9.40624 7.19674 9.40625 7.4375C9.40709 7.67429 9.33024 7.90482 9.1875 8.09375Z" fill="black"/>
</svg>
