<svg width="32" height="32" viewBox="0 0 32 32" fill="none" xmlns="http://www.w3.org/2000/svg">
<circle cx="16" cy="16" r="16" fill="white"/>
<g clip-path="url(#clip0_143_1318)">
<path d="M12.25 7.25H7.25V12.25H12.25V7.25ZM13.5 6V13.5H6V6H13.5ZM8.5 8.5H11V11H8.5V8.5ZM24.75 7.25H19.75V12.25H24.75V7.25ZM26 6V13.5H18.5V6H26ZM21 8.5H23.5V11H21V8.5ZM12.25 19.75H7.25V24.75H12.25V19.75ZM13.5 18.5V26H6V18.5H13.5ZM8.5 21H11V23.5H8.5V21ZM14.75 6H16V7.25H14.75V6ZM16 7.25H17.25V8.5H16V7.25ZM14.75 8.5H16V9.75H14.75V8.5ZM16 9.75H17.25V11H16V9.75ZM14.75 11H16V12.25H14.75V11ZM16 12.25H17.25V13.5H16V12.25ZM14.75 13.5H16V14.75H14.75V13.5ZM14.75 16H16V17.25H14.75V16ZM16 17.25H17.25V18.5H16V17.25ZM14.75 18.5H16V19.75H14.75V18.5ZM16 19.75H17.25V21H16V19.75ZM14.75 21H16V22.25H14.75V21ZM16 22.25H17.25V23.5H16V22.25ZM14.75 23.5H16V24.75H14.75V23.5ZM16 24.75H17.25V26H16V24.75ZM24.75 16H26V17.25H24.75V16ZM7.25 16H8.5V17.25H7.25V16ZM8.5 14.75H9.75V16H8.5V14.75ZM6 14.75H7.25V16H6V14.75ZM11 14.75H12.25V16H11V14.75ZM12.25 16H13.5V17.25H12.25V16ZM13.5 14.75H14.75V16H13.5V14.75ZM17.25 16H18.5V17.25H17.25V16ZM18.5 14.75H19.75V16H18.5V14.75ZM19.75 16H21V17.25H19.75V16ZM21 14.75H22.25V16H21V14.75ZM22.25 16H23.5V17.25H22.25V16ZM23.5 14.75H24.75V16H23.5V14.75ZM24.75 18.5H26V19.75H24.75V18.5ZM17.25 18.5H18.5V19.75H17.25V18.5ZM18.5 17.25H19.75V18.5H18.5V17.25ZM19.75 18.5H21V19.75H19.75V18.5ZM22.25 18.5H23.5V19.75H22.25V18.5ZM23.5 17.25H24.75V18.5H23.5V17.25ZM24.75 21H26V22.25H24.75V21ZM17.25 21H18.5V22.25H17.25V21ZM18.5 19.75H19.75V21H18.5V19.75ZM21 19.75H22.25V21H21V19.75ZM22.25 21H23.5V22.25H22.25V21ZM23.5 19.75H24.75V21H23.5V19.75ZM24.75 23.5H26V24.75H24.75V23.5ZM18.5 22.25H19.75V23.5H18.5V22.25ZM19.75 23.5H21V24.75H19.75V23.5ZM21 22.25H22.25V23.5H21V22.25ZM22.25 23.5H23.5V24.75H22.25V23.5ZM18.5 24.75H19.75V26H18.5V24.75ZM21 24.75H22.25V26H21V24.75ZM23.5 24.75H24.75V26H23.5V24.75Z" fill="black"/>
</g>
<defs>
<clipPath id="clip0_143_1318">
<rect width="20" height="20" fill="white" transform="translate(6 6)"/>
</clipPath>
</defs>
</svg>
