<svg width="70" height="70" viewBox="0 0 70 70" fill="none" xmlns="http://www.w3.org/2000/svg">
<circle cx="35" cy="35" r="35" fill="#D9D9D9"/>
<path d="M53.8163 50.75C50.9607 45.8131 46.5601 42.2731 41.4244 40.595C43.9648 39.0827 45.9384 36.7784 47.0423 34.0358C48.1463 31.2933 48.3194 28.2642 47.5352 25.4138C46.751 22.5633 45.0527 20.0491 42.7013 18.2572C40.3498 16.4653 37.4752 15.4949 34.5188 15.4949C31.5624 15.4949 28.6878 16.4653 26.3364 18.2572C23.9849 20.0491 22.2867 22.5633 21.5025 25.4138C20.7182 28.2642 20.8914 31.2933 21.9953 34.0358C23.0992 36.7784 25.0729 39.0827 27.6132 40.595C22.4776 42.2712 18.0769 45.8112 15.2213 50.75C15.1166 50.9207 15.0471 51.1107 15.017 51.3088C14.9869 51.5068 14.9968 51.7088 15.0461 51.903C15.0953 52.0972 15.1829 52.2795 15.3038 52.4392C15.4247 52.599 15.5763 52.7329 15.7497 52.8331C15.9232 52.9333 16.115 52.9977 16.3137 53.0226C16.5125 53.0474 16.7142 53.0323 16.907 52.9779C17.0998 52.9236 17.2797 52.8311 17.4362 52.7061C17.5927 52.5811 17.7226 52.426 17.8182 52.25C21.3507 46.145 27.5944 42.5 34.5188 42.5C41.4432 42.5 47.6869 46.145 51.2194 52.25C51.315 52.426 51.4449 52.5811 51.6014 52.7061C51.7579 52.8311 51.9379 52.9236 52.1307 52.9779C52.3234 53.0323 52.5252 53.0474 52.7239 53.0226C52.9227 52.9977 53.1144 52.9333 53.2879 52.8331C53.4613 52.7329 53.613 52.599 53.7338 52.4392C53.8547 52.2795 53.9423 52.0972 53.9916 51.903C54.0408 51.7088 54.0507 51.5068 54.0206 51.3088C53.9905 51.1107 53.921 50.9207 53.8163 50.75ZM24.0188 29C24.0188 26.9233 24.6346 24.8932 25.7884 23.1665C26.9421 21.4398 28.582 20.094 30.5006 19.2992C32.4193 18.5045 34.5305 18.2966 36.5673 18.7017C38.6041 19.1069 40.475 20.1069 41.9434 21.5754C43.4119 23.0438 44.4119 24.9147 44.8171 26.9515C45.2222 28.9883 45.0143 31.0995 44.2196 33.0182C43.4248 34.9368 42.079 36.5767 40.3523 37.7304C38.6256 38.8842 36.5955 39.5 34.5188 39.5C31.735 39.497 29.066 38.3898 27.0975 36.4213C25.129 34.4528 24.0218 31.7838 24.0188 29Z" fill="#32373C"/>
</svg>
