<svg width="24" height="24" viewBox="0 0 24 24" fill="none" xmlns="http://www.w3.org/2000/svg">
<path d="M23.5785 21.45C21.8651 18.4879 19.2247 16.3639 16.1434 15.357C17.6675 14.4496 18.8517 13.067 19.5141 11.4215C20.1765 9.776 20.2803 7.95855 19.8098 6.24827C19.3393 4.538 18.3203 3.02946 16.9095 1.95434C15.4986 0.879209 13.7738 0.296936 12 0.296936C10.2262 0.296936 8.50138 0.879209 7.09052 1.95434C5.67965 3.02946 4.66071 4.538 4.19017 6.24827C3.71963 7.95855 3.82352 9.776 4.48587 11.4215C5.14823 13.067 6.33243 14.4496 7.85661 15.357C4.77524 16.3627 2.13486 18.4867 0.421487 21.45C0.358655 21.5525 0.316978 21.6664 0.298917 21.7853C0.280856 21.9041 0.286776 22.0253 0.316327 22.1418C0.345878 22.2583 0.398463 22.3677 0.470978 22.4635C0.543493 22.5594 0.63447 22.6397 0.73854 22.6999C0.842611 22.76 0.957667 22.7986 1.07692 22.8136C1.19617 22.8285 1.31721 22.8194 1.43289 22.7868C1.54856 22.7542 1.65654 22.6987 1.75044 22.6237C1.84434 22.5487 1.92226 22.4556 1.97961 22.35C4.09911 18.687 7.84536 16.5 12 16.5C16.1546 16.5 19.9009 18.687 22.0204 22.35C22.0777 22.4556 22.1556 22.5487 22.2495 22.6237C22.3434 22.6987 22.4514 22.7542 22.5671 22.7868C22.6828 22.8194 22.8038 22.8285 22.9231 22.8136C23.0423 22.7986 23.1574 22.76 23.2614 22.6999C23.3655 22.6397 23.4565 22.5594 23.529 22.4635C23.6015 22.3677 23.6541 22.2583 23.6836 22.1418C23.7132 22.0253 23.7191 21.9041 23.7011 21.7853C23.683 21.6664 23.6413 21.5525 23.5785 21.45ZM5.69999 8.4C5.69999 7.15397 6.06948 5.93593 6.76173 4.8999C7.45398 3.86388 8.43791 3.05639 9.58908 2.57956C10.7403 2.10272 12.007 1.97796 13.2291 2.22105C14.4511 2.46414 15.5737 3.06415 16.4548 3.94522C17.3358 4.82629 17.9358 5.94885 18.1789 7.17093C18.422 8.39301 18.2973 9.65973 17.8204 10.8109C17.3436 11.9621 16.5361 12.946 15.5001 13.6383C14.464 14.3305 13.246 14.7 12 14.7C10.3297 14.6982 8.72828 14.0339 7.54719 12.8528C6.3661 11.6717 5.70177 10.0703 5.69999 8.4Z" fill="#5C656E"/>
</svg>
